<svg width="16" height="16" viewBox="0 0 16 16" fill="none" xmlns="http://www.w3.org/2000/svg" >
    <g id="logo">
        <g clip-path="url(#clip0_1_2)">
        <rect width="45" height="45" fill="#FF6DCF"/>
        <path d="M17.0298 16.5455C16.8935 15.3939 16.3404 14.5 15.3707 13.8636C14.401 13.2273 13.2116 12.9091 11.8026 12.9091C10.7723 12.9091 9.87074 13.0758 9.09801 13.4091C8.33286 13.7424 7.73438 14.2008 7.30256 14.7841C6.87831 15.3674 6.66619 16.0303 6.66619 16.7727C6.66619 17.3939 6.81392 17.928 7.10938 18.375C7.41241 18.8144 7.79877 19.1818 8.26847 19.4773C8.73816 19.7652 9.23059 20.0038 9.74574 20.1932C10.2609 20.375 10.7344 20.5227 11.1662 20.6364L13.5298 21.2727C14.1359 21.4318 14.8101 21.6515 15.5526 21.9318C16.3026 22.2121 17.0185 22.5947 17.7003 23.0795C18.3897 23.5568 18.9579 24.1705 19.4048 24.9205C19.8518 25.6705 20.0753 26.5909 20.0753 27.6818C20.0753 28.9394 19.7457 30.0758 19.0866 31.0909C18.4351 32.1061 17.4806 32.9129 16.223 33.5114C14.973 34.1098 13.4541 34.4091 11.6662 34.4091C9.99953 34.4091 8.55634 34.1402 7.33665 33.6023C6.12453 33.0644 5.16998 32.3144 4.47301 31.3523C3.78362 30.3902 3.39347 29.2727 3.30256 28H6.21165C6.28741 28.8788 6.58286 29.6061 7.09801 30.1818C7.62074 30.75 8.27983 31.1742 9.07528 31.4545C9.87831 31.7273 10.742 31.8636 11.6662 31.8636C12.742 31.8636 13.7079 31.6894 14.5639 31.3409C15.42 30.9848 16.098 30.4924 16.598 29.8636C17.098 29.2273 17.348 28.4848 17.348 27.6364C17.348 26.8636 17.1321 26.2348 16.7003 25.75C16.2685 25.2652 15.7003 24.8712 14.9957 24.5682C14.2912 24.2652 13.5298 24 12.7116 23.7727L9.84801 22.9545C8.02983 22.4318 6.59044 21.6856 5.52983 20.7159C4.46922 19.7462 3.93892 18.4773 3.93892 16.9091C3.93892 15.6061 4.29119 14.4697 4.99574 13.5C5.70786 12.5227 6.66241 11.7652 7.85938 11.2273C9.06392 10.6818 10.4086 10.4091 11.8935 10.4091C13.3935 10.4091 14.7268 10.678 15.8935 11.2159C17.0601 11.7462 17.9844 12.4735 18.6662 13.3977C19.3556 14.322 19.7192 15.3712 19.7571 16.5455H17.0298ZM25.6634 10.7273L32.5724 30.3182H32.8452L39.7543 10.7273H42.7088L34.1634 34H31.2543L22.7088 10.7273H25.6634Z" fill="#0B0114"/>
        <rect x="5.4672" y="47.0378" width="3.01518" height="52.206" transform="rotate(-119.118 5.4672 47.0378)" fill="#FF6DCF"/>
        <rect x="1.4672" y="39.0378" width="3.01518" height="52.206" transform="rotate(-119.118 1.4672 39.0378)" fill="#FF6DCF"/>
        <rect x="-1.5328" y="32.0378" width="3.01518" height="52.206" transform="rotate(-119.118 -1.5328 32.0378)" fill="#FF6DCF"/>
        <rect x="1.98392" y="19.7371" width="3.01518" height="34.1196" transform="rotate(-119.118 1.98392 19.7371)" fill="#FF6DCF"/>
        </g>
        <defs>
        <clipPath id="clip0_1_2">
        <rect width="45" height="45" fill="white"/>
        </clipPath>
        </defs>
    </g>
    <g id="git">
        <mask id="mask0_14_23" style="mask-type:luminance" maskUnits="userSpaceOnUse" x="5" y="5" width="90" height="90">
        <path d="M95 5H5V95H95V5Z" fill="white"/>
        </mask>
        <g mask="url(#mask0_14_23)">
        <path d="M93.3029 45.9902L54.0078 6.6975C51.7462 4.43449 48.0759 4.43449 45.8115 6.6975L37.6517 14.8573L48.0028 25.2083C50.4082 24.3955 53.1665 24.9408 55.084 26.8582C57.0105 28.7879 57.5519 31.5698 56.7194 33.9829L66.695 43.9589C69.1085 43.1275 71.8932 43.6653 73.8209 45.5961C76.5149 48.2891 76.5149 52.6537 73.8209 55.3485C71.1261 58.0435 66.7614 58.0435 64.0653 55.3485C62.0389 53.32 61.5383 50.344 62.5642 47.8476L53.2611 38.5445L53.2601 63.0263C53.9345 63.3597 54.5504 63.8002 55.084 64.3305C57.778 67.0235 57.778 71.3885 55.084 74.0853C52.3892 76.7791 48.0225 76.7791 45.3316 74.0853C42.6376 71.3885 42.6376 67.0238 45.3316 64.3309C45.9772 63.685 46.7445 63.1735 47.5889 62.8259V38.1159C46.7432 37.7707 45.9755 37.2589 45.3316 36.6109C43.2905 34.5726 42.7997 31.5775 43.8455 29.0713L33.6418 18.8665L6.69804 45.8085C4.43399 48.0736 4.43399 51.7442 6.69804 54.0076L45.9936 93.3012C48.2559 95.564 51.9255 95.564 54.1907 93.3012L93.302 54.1901C95.5657 51.926 95.5666 48.2533 93.3029 45.9902Z" fill="white"/>
        </g>
    </g>
    <g id="github">
        <path fill-rule="evenodd" clip-rule="evenodd" d="M44 0C19.69 0 0 19.69 0 44C0 63.47 12.595 79.915 30.085 85.745C32.285 86.13 33.11 84.81 33.11 83.655C33.11 82.61 33.055 79.145 33.055 75.46C22 77.495 19.14 72.765 18.26 70.29C17.765 69.025 15.62 65.12 13.75 64.075C12.21 63.25 10.01 61.215 13.695 61.16C17.16 61.105 19.635 64.35 20.46 65.67C24.42 72.325 30.745 70.455 33.275 69.3C33.66 66.44 34.815 64.515 36.08 63.415C26.29 62.315 16.06 58.52 16.06 41.69C16.06 36.905 17.765 32.945 20.57 29.865C20.13 28.765 18.59 24.255 21.01 18.205C21.01 18.205 24.695 17.05 33.11 22.715C36.63 21.725 40.37 21.23 44.11 21.23C47.85 21.23 51.59 21.725 55.11 22.715C63.525 16.995 67.21 18.205 67.21 18.205C69.63 24.255 68.09 28.765 67.65 29.865C70.455 32.945 72.16 36.85 72.16 41.69C72.16 58.575 61.875 62.315 52.085 63.415C53.68 64.79 55.055 67.43 55.055 71.555C55.055 77.44 55 82.17 55 83.655C55 84.81 55.825 86.185 58.025 85.745C66.7597 82.796 74.3497 77.1822 79.7268 69.6937C85.1039 62.2052 87.9974 53.219 88 44C88 19.69 68.31 0 44 0Z" fill="#FFFEFE"/>
    </g>
    <g id="figma">
        <path d="M35.4167 8.33333C28.5131 8.33333 22.9167 13.9298 22.9167 20.8333C22.9167 27.7369 28.5131 33.3333 35.4167 33.3333H64.5833C71.4871 33.3333 77.0833 27.7369 77.0833 20.8333C77.0833 13.9298 71.4871 8.33333 64.5833 8.33333H35.4167Z" fill="white"/>
        <path d="M64.5833 37.5C57.6796 37.5 52.0833 43.0962 52.0833 50C52.0833 56.9037 57.6796 62.5 64.5833 62.5C71.4871 62.5 77.0833 56.9037 77.0833 50C77.0833 43.0962 71.4871 37.5 64.5833 37.5Z" fill="white"/>
        <path d="M22.9167 50C22.9167 43.0962 28.5131 37.5 35.4167 37.5H47.9167V62.5H35.4167C28.5131 62.5 22.9167 56.9037 22.9167 50Z" fill="white"/>
        <path d="M35.4167 66.6667C28.5131 66.6667 22.9167 72.2629 22.9167 79.1667C22.9167 86.0704 28.5131 91.6667 35.4167 91.6667C42.3204 91.6667 47.9167 86.0704 47.9167 79.1667V66.6667H35.4167Z" fill="white"/>
    </g>
    <g id="js">
        <g clip-path="url(#clip0_10_6)">
        <rect width="100" height="100" fill="none"/>
        <path d="M44.4319 40.92V58.648C44.4319 60.184 43.9839 61.3573 43.0879 62.168C42.2132 62.9787 40.9759 63.384 39.3759 63.384C38.9919 63.384 38.5332 63.352 37.9999 63.288C37.4879 63.2453 36.9865 63.1707 36.4959 63.064C36.0052 62.9787 35.6105 62.872 35.3119 62.744L35.8239 59.576H37.3919C38.8425 59.576 39.5679 58.9787 39.5679 57.784V40.92H44.4319ZM56.0821 40.504C57.1701 40.504 58.3541 40.568 59.6341 40.696C60.9141 40.8027 62.1621 41.0373 63.3781 41.4L63.0581 44.632C62.1195 44.6107 61.0208 44.5893 59.7621 44.568C58.5035 44.5467 57.2661 44.536 56.0501 44.536C55.4528 44.536 54.9408 44.5573 54.5141 44.6C54.1088 44.6213 53.7781 44.7067 53.5221 44.856C53.2661 44.984 53.0848 45.1867 52.9781 45.464C52.8715 45.7413 52.8181 46.1253 52.8181 46.616C52.8181 47.3627 52.9888 47.9067 53.3301 48.248C53.6928 48.5893 54.3008 48.8987 55.1541 49.176L59.4101 50.552C61.1808 51.1493 62.4075 51.96 63.0901 52.984C63.7728 54.008 64.1141 55.352 64.1141 57.016C64.1141 58.2747 63.9648 59.32 63.6661 60.152C63.3675 60.984 62.8981 61.6347 62.2581 62.104C61.6181 62.5733 60.7755 62.904 59.7301 63.096C58.6848 63.3093 57.4048 63.416 55.8901 63.416C55.1648 63.416 54.1301 63.3627 52.7861 63.256C51.4421 63.1707 49.9061 62.936 48.1781 62.552L48.4981 59.096C49.7568 59.1173 50.8448 59.1493 51.7621 59.192C52.7008 59.2133 53.5008 59.2347 54.1621 59.256C54.8235 59.256 55.3995 59.256 55.8901 59.256C56.7435 59.256 57.4048 59.2027 57.8741 59.096C58.3648 58.9893 58.7061 58.776 58.8981 58.456C59.0901 58.136 59.1861 57.6773 59.1861 57.08C59.1861 56.568 59.1115 56.1627 58.9621 55.864C58.8341 55.544 58.6101 55.2987 58.2901 55.128C57.9915 54.936 57.5755 54.7653 57.0421 54.616L52.5621 53.08C50.8768 52.4613 49.6821 51.6507 48.9781 50.648C48.2741 49.6453 47.9221 48.3227 47.9221 46.68C47.9221 45.4 48.0715 44.3653 48.3701 43.576C48.6901 42.7653 49.1701 42.136 49.8101 41.688C50.4715 41.24 51.3141 40.9307 52.3381 40.76C53.3835 40.5893 54.6315 40.504 56.0821 40.504Z" fill="white"/>
        </g>
        <defs>
        <clipPath id="clip0_10_6">
        <rect width="100" height="100" fill="white"/>
        </clipPath>
        </defs>
    </g>
    <g id="bootstrap">
        <g clip-path="url(#clip0_14_19)">
        <rect width="100" height="100" fill="none"/>
        <path d="M50.447 38.08C52.847 38.08 54.7537 38.2933 56.167 38.72C57.607 39.12 58.647 39.84 59.287 40.88C59.927 41.92 60.247 43.3867 60.247 45.28C60.247 47.2533 59.8604 48.76 59.087 49.8C58.3404 50.8133 57.1004 51.4 55.367 51.56V51.8C57.5004 51.9867 58.9937 52.7067 59.847 53.96C60.7004 55.1867 61.127 56.9067 61.127 59.12C61.127 61.0133 60.7937 62.48 60.127 63.52C59.487 64.56 58.4737 65.2933 57.087 65.72C55.727 66.12 53.9404 66.32 51.727 66.32C49.9404 66.32 48.3804 66.3067 47.047 66.28C45.7404 66.28 44.527 66.2533 43.407 66.2C42.287 66.1467 41.1404 66.08 39.967 66L40.567 61.76C41.207 61.7867 42.4337 61.8133 44.247 61.84C46.087 61.8667 48.2204 61.88 50.647 61.88C51.767 61.88 52.647 61.7733 53.287 61.56C53.927 61.3467 54.367 60.96 54.607 60.4C54.8737 59.8133 55.007 58.9867 55.007 57.92C55.007 56.7733 54.8737 55.9067 54.607 55.32C54.3404 54.7067 53.8737 54.28 53.207 54.04C52.567 53.8 51.6737 53.6667 50.527 53.64H40.527V49.76H50.447C51.4337 49.7333 52.207 49.6267 52.767 49.44C53.3537 49.2533 53.767 48.8933 54.007 48.36C54.247 47.8267 54.367 47.08 54.367 46.12C54.367 45.1333 54.2337 44.3867 53.967 43.88C53.727 43.3467 53.3004 42.9867 52.687 42.8C52.0737 42.6133 51.2204 42.52 50.127 42.52C48.6337 42.52 47.3137 42.52 46.167 42.52C45.0204 42.52 43.9937 42.5333 43.087 42.56C42.1804 42.56 41.3404 42.5867 40.567 42.64L39.967 38.4C41.0337 38.2933 42.0604 38.2267 43.047 38.2C44.0604 38.1467 45.1537 38.12 46.327 38.12C47.5004 38.0933 48.8737 38.08 50.447 38.08ZM45.967 38.4V66H39.967V38.4H45.967Z" fill="white"/>
        </g>
        <defs>
        <clipPath id="clip0_14_19">
        <rect width="100" height="100" fill="white"/>
        </clipPath>
        </defs>
    </g>
    <g id="sass">
        <g clip-path="url(#clip0_14_13)">
        <mask id="mask0_14_13" style="mask-type:luminance" maskUnits="userSpaceOnUse" x="0" y="0" width="100" height="100">
        <path d="M100 0H0V100H100V0Z" fill="white"/>
        </mask>
        <g mask="url(#mask0_14_13)">
        <path d="M86.0453 57.5594C82.5667 57.5833 79.543 58.7006 77.0115 60.3522C76.0822 57.899 75.1534 55.7136 74.9897 54.1105C74.8073 52.2407 74.589 51.099 74.8073 48.8646C75.0261 46.6302 76.0096 43.4485 75.9913 43.2058C75.9732 42.9631 75.7725 41.8214 73.7691 41.7975C71.7656 41.773 70.0353 42.3074 69.8349 43.0115C69.6345 43.7156 69.2521 45.3189 68.9971 46.9699C68.6509 49.399 64.9902 58.0689 62.8958 62.6105C62.2216 60.8381 61.6388 59.2833 61.5111 58.0448C61.3291 56.1751 61.1103 55.0333 61.3291 52.799C61.5478 50.5646 62.5314 47.3833 62.513 47.1401C62.4946 46.8975 62.2943 45.7558 60.2908 45.7318C58.287 45.7074 56.5567 46.2417 56.3567 46.9459C56.1563 47.6506 55.9375 49.3016 55.5188 50.9047C55.0997 52.5078 50.2367 66.9829 48.9617 70.7224C48.4465 72.2361 47.9061 73.7341 47.3407 75.2156C47.3407 75.2156 47.3224 75.2886 47.2677 75.41C47.0901 75.8745 46.908 76.336 46.7216 76.7944V76.8183C46.4482 77.4745 46.1568 78.0813 46.0111 78.0813C45.9017 78.0813 45.7014 76.3329 46.0474 73.9526C46.7759 68.9255 48.5063 61.1053 48.4883 60.8381C48.4883 60.6922 48.8161 59.3323 47.3591 58.6277C45.938 57.9235 45.4283 59.0891 45.3006 59.0891C45.1732 59.0891 45.0819 59.5022 45.0819 59.5022C45.0819 59.5022 46.6669 50.7105 42.0585 50.7105C39.1809 50.7105 35.2101 54.9121 33.243 58.7006C31.0068 60.3232 28.7726 61.9505 26.5402 63.5823C25.4661 64.3839 24.3548 65.1855 23.3165 65.9381C23.2435 65.8412 23.1709 65.7193 23.0978 65.6224C17.5243 57.6808 7.21538 52.0704 7.65246 41.4089C7.81652 37.523 8.81803 27.3224 27.4511 14.9366C42.787 4.85735 54.9908 7.65007 57.1035 13.8433C60.1268 22.6839 50.5648 39.1016 34.7183 41.4813C28.6714 42.3802 25.502 39.2714 24.7008 38.1058C23.863 36.8912 23.7353 36.8183 23.4256 37.0615C22.9158 37.4261 23.2435 38.5189 23.4256 39.15C23.8993 40.8012 25.848 43.7156 29.1448 45.149C32.0591 46.4115 39.1443 47.1162 47.7232 42.6959C57.3219 37.7412 64.8262 23.9709 62.6224 12.435C60.4182 0.728709 45.847 -3.13275 32.0591 3.40007C23.863 7.28653 14.9744 13.4063 8.58136 21.3724C0.986003 30.8438 -0.216278 39.0771 0.275494 42.5261C2.04259 54.7662 14.7014 62.7323 19.7648 68.6339C19.5097 68.8282 19.2726 68.9985 19.0726 69.1444C16.5407 70.8199 6.88727 77.5469 4.4831 84.6631C1.7512 92.7261 4.92058 98.5068 7.015 99.2833C13.5174 101.688 20.2019 97.3652 23.7899 90.2245C27.378 83.0844 26.9409 73.8068 25.2836 69.5568C25.2653 69.5084 25.2473 69.4594 25.2106 69.411C25.8664 68.901 26.5402 68.3667 27.1961 67.8568C28.4014 66.9067 29.622 65.9916 30.8572 65.1121C30.2377 67.3709 29.7822 70.0667 29.5638 73.9526C29.2904 78.5189 30.6927 84.4444 32.5325 86.7755C33.3524 87.7964 34.3175 87.8204 34.937 87.8204C37.0861 87.8204 38.0517 85.4401 39.1263 82.623C40.4375 79.1745 41.6214 75.1672 41.6214 75.1672C41.6214 75.1672 40.1461 85.999 44.1534 85.999C45.6103 85.999 47.0856 83.473 47.7414 82.186V82.21C47.7414 82.21 47.7778 82.137 47.8508 81.9672C47.9966 81.6516 48.0875 81.4568 48.0875 81.4568V81.4089C48.6703 80.0485 49.982 76.9641 51.9307 71.8397C54.4443 65.2339 56.8668 56.9767 56.8668 56.9767C56.8668 56.9767 57.0855 58.9922 57.832 62.3438C58.2695 64.311 59.1796 66.4724 59.9085 68.561C59.3256 69.6543 58.9612 70.261 58.9612 70.261L58.9796 70.2855C58.5058 71.111 57.9961 72.0094 57.4312 72.8845C55.4458 76.0412 53.0783 79.6605 52.7503 80.7043C52.3674 81.9428 52.4588 82.8417 53.1877 83.5704C53.7158 84.1047 54.6626 84.1771 55.6282 84.1047C57.4132 83.9344 58.6698 83.3516 59.289 82.9876C60.2545 82.5261 61.3838 81.8214 62.44 80.7771C64.3891 78.8584 65.5726 76.1141 65.4637 72.4959C65.409 70.5043 64.9172 68.5125 64.3161 66.6422C64.4985 66.3026 64.6621 65.9625 64.8445 65.6224C67.9225 59.6235 70.3087 53.0417 70.3087 53.0417C70.3087 53.0417 70.5274 55.0574 71.2739 58.4094C71.6383 60.1094 72.3852 61.9553 73.0406 63.7522C70.1447 66.8855 68.3596 70.5282 67.7221 72.9084C66.5749 77.3287 67.4671 79.3199 69.1611 79.7813C69.9259 80 71.0188 79.5141 71.8203 79.0527C72.8403 78.6156 74.0425 77.8631 75.1901 76.7454C77.1392 74.8271 79.0149 72.1553 78.9056 68.537C78.8509 66.8855 78.5232 65.2578 78.0677 63.6792C80.5266 62.3199 83.6959 61.5667 87.7393 62.1979C96.4094 63.5578 98.1214 70.7709 97.7932 73.8074C97.4658 76.8428 95.6444 78.4944 95.0436 79.0043C94.4419 79.5146 94.2419 79.6844 94.2966 80.0485C94.3692 80.5829 94.6607 80.5589 95.1709 80.4615C95.8812 80.2917 99.7248 78.0084 99.888 72.4224C100.162 65.2823 95.0615 57.4866 86.0453 57.5594ZM19.1636 87.6261C16.2856 91.8032 12.2788 93.3818 10.5485 92.0464C8.69068 90.6131 9.41914 84.4444 12.9526 80.0245C15.1017 77.3287 17.8703 74.8267 19.7101 73.2969C20.1288 72.9568 20.7483 72.4714 21.4951 71.8641C21.6225 71.7667 21.6956 71.7183 21.6956 71.7183L22.1326 71.3537C23.4255 77.6683 22.1873 83.2302 19.1636 87.6261ZM40.1098 68.6339C39.1079 71.8886 37.0135 80.2189 35.7385 79.7574C34.6456 79.3689 33.9714 73.0543 35.5198 66.8125C36.303 63.6792 37.9603 59.9391 38.9259 58.4823C40.4922 56.1506 42.2226 55.373 42.6414 56.3209C43.1698 57.5594 40.729 66.5938 40.1098 68.6339ZM57.3949 79.66C56.9758 79.9516 56.5754 80.1459 56.393 80C56.2656 79.9026 56.5754 79.5141 56.5754 79.5141C56.5754 79.5141 58.7429 76.4058 59.5987 74.9969C60.0908 74.1714 60.6732 73.2 61.2927 72.1068V72.4224C61.2927 76.1386 58.5972 78.6401 57.3949 79.66ZM70.7274 75.6043C70.4177 75.3125 70.4724 74.3412 71.5106 71.3053C71.9114 70.1152 72.8582 68.124 74.4796 66.2053C74.6616 66.9823 74.7893 67.7355 74.771 68.4397C74.7526 73.1271 72.2395 74.8755 70.7274 75.6043Z" fill="white"/>
        </g>
        </g>
        <defs>
        <clipPath id="clip0_14_13">
        <rect width="100" height="100" fill="white"/>
        </clipPath>
        </defs>
    </g>
    <g id="react">
        <path d="M95.625 50C95.625 44.1667 89.375 38.75 78.9583 35L77.0833 34.375V33.5417C79.375 22.0833 77.7083 13.5417 72.5 10.4167C67.2917 7.29167 59.5833 10.2083 51.25 17.5L50 18.75L49.5833 18.3333H49.1667C40.625 10.4167 32.2917 7.70833 27.0833 10.625C21.875 13.5417 20.4167 21.6667 22.5 32.2917C22.7192 32.9676 22.859 33.6668 22.9167 34.375L20.625 35.2083C10.4167 38.75 4.375 44.1667 4.375 50C4.375 55.8333 11.0417 61.6667 21.4583 65.4167L22.9167 65.8333C22.6593 66.5709 22.5187 67.3441 22.5 68.125C20.4167 78.5417 22.2917 86.4583 27.0833 89.375C31.875 92.2917 40.625 89.5833 48.9583 82.2917L50.2083 81.25L51.875 82.9167C57.7083 87.9167 63.5417 90.625 68.125 90.625C69.7417 90.6619 71.3342 90.2276 72.7083 89.375C77.9167 86.4583 79.7917 77.9167 77.5 67.0833V66.6667C77.41 66.3239 77.3404 65.976 77.2917 65.625H77.9167C88.9583 61.6667 95.625 56.0417 95.625 50ZM89.5833 50C89.5833 52.5 85 56.875 76.0417 59.7917H75.625C74.5328 56.4404 73.2102 53.1687 71.6667 50C73.125 46.6667 74.375 43.3333 75.4167 40.2083L77.0833 40.625C85.4167 43.5417 89.5833 47.5 89.5833 50ZM55.8333 78.3333L54.1667 77.0833C56.5521 74.4402 58.7783 71.6575 60.8333 68.75L71.4583 67.0833C71.6667 67.5 71.6667 67.9167 71.875 68.125C72.6174 71.8986 72.758 75.7658 72.2917 79.5833C71.9989 81.409 71.1217 83.0905 69.7917 84.375C67.7083 85.625 62.0833 83.9583 55.8333 78.3333ZM53.125 69.1667L50.2083 72.9167L46.875 69.1667H53.125ZM24.5833 40C25.6305 43.4348 26.9542 46.7791 28.5417 50C26.9529 53.2921 25.6293 56.7057 24.5833 60.2083L23.3333 59.7917C19.6851 58.6402 16.2908 56.8016 13.3333 54.375C12.5675 53.8911 11.9121 53.2515 11.4096 52.4978C10.9071 51.744 10.5688 50.893 10.4167 50C10.4167 47.5 14.5833 43.5417 22.5 40.8333L24.5833 40ZM46.875 30.8333L50 27.2917L53.125 30.8333H46.875ZM69.7917 15.625C72.0833 16.875 73.3333 23.125 71.4583 32.2917C71.4679 32.4045 71.4544 32.5182 71.4186 32.6256C71.3827 32.7331 71.3254 32.8321 71.25 32.9167L60.8333 31.25C58.7783 28.3425 56.5521 25.5598 54.1667 22.9167L55.4167 21.875C62.0833 16.0417 67.5 14.375 69.7917 15.625ZM35 37.7083L33.3333 40.4167L31.875 43.125C31.25 41.6667 30.8333 40.2083 30.2083 38.5417L35 37.7083ZM30.2083 61.4583C30.8333 60 31.25 58.5417 31.875 56.875L33.3333 59.5833L35 62.2917L30.2083 61.4583ZM65 50C63.9399 52.2841 62.7576 54.5096 61.4583 56.6667C60.2083 58.9583 58.75 61.0417 57.5 63.125H42.5C41.0417 60.8333 39.5833 58.75 38.5417 56.6667C37.2321 54.5154 36.0496 52.2894 35 50C36.0109 47.6917 37.1948 45.4631 38.5417 43.3333C39.7386 41.1749 41.0603 39.088 42.5 37.0833C47.4913 36.6669 52.5087 36.6669 57.5 37.0833C58.9583 39.1667 60.2083 41.25 61.4583 43.3333C62.8052 45.4631 63.9891 47.6917 65 50ZM66.6667 40.4167L65 37.7083L69.7917 38.75C69.3278 40.2416 68.7711 41.7028 68.125 43.125L66.6667 40.4167ZM65 62.2917L66.6667 59.5833L68.125 56.6667L70 61.4583L65 62.2917ZM45.625 22.7083H45.8333L39.1667 31.0417L28.75 32.7083C28.5417 32.0833 28.5417 31.6667 28.3333 31.0417C26.6667 22.5 27.9167 16.6667 30 15.625C30.5531 15.2617 31.2201 15.1135 31.875 15.2083C34.7917 15.2083 39.7917 17.2917 45.4167 22.2917L45.625 22.7083ZM28.3333 69.1667C28.3713 68.5234 28.512 67.8904 28.75 67.2917L39.375 68.75C41.3779 71.6963 43.6069 74.4825 46.0417 77.0833L45.625 77.5L45.2083 77.9167C42.368 80.5477 39.0421 82.5998 35.4167 83.9583C34.6213 84.3749 33.75 84.6266 32.855 84.6982C31.96 84.7698 31.0598 84.6599 30.2083 84.375C27.9167 83.125 26.6667 77.5 28.3333 69.1667Z" fill="white"/>
        <path d="M50 40.8334C48.1787 40.792 46.3864 41.2942 44.8518 42.2759C43.3172 43.2577 42.1099 44.6744 41.384 46.3453C40.6582 48.0163 40.4467 49.8656 40.7765 51.6572C41.1063 53.4489 41.9625 55.1016 43.2358 56.4045C44.5091 57.7075 46.1417 58.6014 47.9253 58.9723C49.7089 59.3432 51.5626 59.1743 53.2498 58.487C54.9369 57.7998 56.3811 56.6254 57.3978 55.1137C58.4146 53.6021 58.9579 51.8218 58.9583 50C58.959 47.6045 58.0218 45.304 56.3476 43.5908C54.6733 41.8776 52.3949 40.8878 50 40.8334Z" fill="white"/>
    </g>
    <g id="nails">
        <path d="M74.5183 12.5L73.9777 15.2993C73.1415 20.6042 73.4443 22.122 75.7364 24.0908L77.9493 25.9092L75.6571 36.061C74.2876 42.1177 72.6081 47.1936 71.5413 48.8617C70.6259 50.3007 69.5591 52.4198 69.3285 53.5581C68.9464 54.9184 67.649 56.2858 65.6668 57.4957C63.9152 58.4837 60.4769 61.1326 58.0406 63.2589C56.0944 64.9986 54.7537 66.0653 54.0257 66.5235L51.647 68.392C50.883 69.6091 50.4505 70.5899 50.2847 71.3345C50.1189 72.1005 50.2126 72.6088 50.4577 72.9811C50.6956 73.3391 51.1064 73.5896 51.6687 73.7471C52.3342 73.9021 53.0193 73.9576 53.7013 73.9118C55.2444 73.8071 56.7716 73.5383 58.2569 73.11C58.7614 72.9739 59.1579 72.8451 59.5038 72.7305C60.0372 72.079 61.2698 70.8476 63.4539 68.707C69.2492 63.0298 71.462 59.9227 69.1771 60.7603C68.3337 61.061 68.7158 60.3021 70.1646 58.7844C73.2208 55.8276 74.9724 51.3602 78.6341 37.3497C81.5317 26.2887 81.5317 26.1312 83.6653 26.1312C84.6672 26.1312 87.5 26.303 87.5 26.303V12.5H80.9983H74.5183ZM48.8431 36.1612C46.7384 36.1469 42.2117 39.3328 28.6605 50.3222C28.0766 51.7039 28.0262 52.6561 28.2929 53.2718C28.4659 53.6942 28.783 53.9877 29.2227 54.2025C29.6552 54.4172 30.2175 54.5461 30.8373 54.5962C32.0699 54.7036 33.526 54.5103 34.7009 54.2812L35.4938 54.1022C35.7652 53.7407 36.1215 53.4507 36.5317 53.2574C37.3679 52.7992 40.8782 49.6206 44.3885 46.2128C50.5658 39.9986 52.0147 37.1921 49.499 36.2829C49.2927 36.2014 49.0652 36.1601 48.8431 36.1612ZM64.672 40.4782C62.8196 40.5283 59.4822 42.6618 53.7662 47.1936C50.8974 49.506 49.081 50.7517 48.1079 51.0094L44.3309 53.9734C42.9109 56.5507 42.7018 58.1472 43.0766 59.0278C43.1705 59.245 43.3067 59.4416 43.4774 59.6063C43.6481 59.7709 43.85 59.9004 44.0714 59.9871C44.622 60.2031 45.2092 60.3124 45.8013 60.3093C47.2161 60.2943 48.6224 60.0896 49.982 59.7007C50.6906 59.5119 51.3904 59.2921 52.0795 59.0421L52.2886 58.9562L52.6706 58.7557C53.3914 57.8322 55.0493 56.0925 57.1252 54.0879C63.6845 47.8021 67.0363 43.3348 66.3515 41.6667C66.0416 40.8577 65.5082 40.4496 64.672 40.4782ZM47.1997 48.2102C46.6663 48.2675 45.4697 49.1838 43.3145 51.0596C40.2006 53.7944 36.8056 55.3694 35.6307 54.6678C35.3577 54.7291 35.0837 54.7863 34.809 54.8396C33.6124 55.0759 32.1204 55.2692 30.7869 55.1618C30.1586 55.124 29.5427 54.9711 28.9705 54.7108C28.4307 54.4656 27.9999 54.0327 27.7595 53.4937C27.4928 52.8494 27.4928 52.0475 27.7955 51.0238L23.1103 54.8468L12.5072 63.5596V77.6847L47.2501 50.5011C47.2434 50.2035 47.2823 49.9066 47.3654 49.6206C47.6321 48.6612 47.6177 48.1744 47.1997 48.2174V48.2102ZM62.1492 52.7849C61.623 52.7849 60.7436 53.5223 59.3381 55.0043C57.4279 57.0304 54.4222 58.992 52.8292 59.3929L52.5841 59.5218C52.3226 59.629 52.0582 59.7293 51.7912 59.8224C51.3587 59.9656 50.7965 60.1374 50.1478 60.3093C48.8503 60.6601 47.2357 60.9822 45.7941 60.9464C45.1145 60.9456 44.4414 60.8143 43.8119 60.5598C43.2185 60.317 42.7431 59.855 42.4856 59.2712C42.0675 58.2761 42.2333 56.88 43.1487 54.8969L12.5 78.8731V87.5H25.9647L54.5231 65.2205C55.2655 64.4044 56.3828 63.2875 57.8892 61.8915C61.9258 58.1758 62.8412 56.8943 62.8412 54.9971C62.8412 53.5223 62.6754 52.7778 62.1492 52.7778V52.7849ZM68.9464 66.7454L66.5029 69.1652C65.1334 70.4539 62.6898 72.0432 61.0175 72.7234L60.686 72.8665L60.6643 72.9023L60.5923 72.9739C60.5274 73.024 60.4986 73.0312 60.4481 73.0527C59.7805 73.3036 59.1023 73.5258 58.4154 73.7185C56.8882 74.16 55.3173 74.4361 53.7302 74.5418C52.9798 74.5896 52.2265 74.5244 51.4957 74.3485C50.8615 74.2098 50.3016 73.8425 49.9243 73.3176C49.5783 72.7878 49.4774 72.079 49.672 71.2056C49.8268 70.5838 50.0568 69.9828 50.3568 69.4158L27.3126 87.5H57.9613L61.623 83.3333C66.6543 77.5057 68.9464 73.3391 68.9464 69.7738V66.7454Z" fill="white"/>
    </g>
    <g id="ts">
        <g clip-path="url(#clip0_10_8)">
            <rect width="100" height="100" fill="none"/>
            <path d="M43.064 40.92V63H38.168V40.92H43.064ZM49.72 40.92V44.76H31.544V40.92H49.72ZM59.754 40.504C60.842 40.504 62.026 40.568 63.306 40.696C64.586 40.8027 65.834 41.0373 67.05 41.4L66.73 44.632C65.7913 44.6107 64.6927 44.5893 63.434 44.568C62.1753 44.5467 60.938 44.536 59.722 44.536C59.1247 44.536 58.6127 44.5573 58.186 44.6C57.7807 44.6213 57.45 44.7067 57.194 44.856C56.938 44.984 56.7567 45.1867 56.65 45.464C56.5433 45.7413 56.49 46.1253 56.49 46.616C56.49 47.3627 56.6607 47.9067 57.002 48.248C57.3647 48.5893 57.9727 48.8987 58.826 49.176L63.082 50.552C64.8527 51.1493 66.0793 51.96 66.762 52.984C67.4447 54.008 67.786 55.352 67.786 57.016C67.786 58.2747 67.6367 59.32 67.338 60.152C67.0393 60.984 66.57 61.6347 65.93 62.104C65.29 62.5733 64.4473 62.904 63.402 63.096C62.3567 63.3093 61.0767 63.416 59.562 63.416C58.8367 63.416 57.802 63.3627 56.458 63.256C55.114 63.1707 53.578 62.936 51.85 62.552L52.17 59.096C53.4287 59.1173 54.5167 59.1493 55.434 59.192C56.3727 59.2133 57.1727 59.2347 57.834 59.256C58.4953 59.256 59.0713 59.256 59.562 59.256C60.4153 59.256 61.0767 59.2027 61.546 59.096C62.0367 58.9893 62.378 58.776 62.57 58.456C62.762 58.136 62.858 57.6773 62.858 57.08C62.858 56.568 62.7833 56.1627 62.634 55.864C62.506 55.544 62.282 55.2987 61.962 55.128C61.6633 54.936 61.2473 54.7653 60.714 54.616L56.234 53.08C54.5487 52.4613 53.354 51.6507 52.65 50.648C51.946 49.6453 51.594 48.3227 51.594 46.68C51.594 45.4 51.7433 44.3653 52.042 43.576C52.362 42.7653 52.842 42.136 53.482 41.688C54.1433 41.24 54.986 40.9307 56.01 40.76C57.0553 40.5893 58.3033 40.504 59.754 40.504Z" fill="white"/>
        </g>
        <defs>
        <clipPath id="clip0_10_8">
        <rect width="100" height="100" fill="white"/>
        </clipPath>
        </defs>
        </g>
    <g id="css">
        <g clip-path="url(#clip0_10_4)">
        <rect width="100" height="100" fill="none"/>
        <path d="M32.6918 40.536C33.7371 40.536 34.6224 40.568 35.3478 40.632C36.0944 40.6747 36.7771 40.7493 37.3958 40.856C38.0144 40.9627 38.6544 41.112 39.3158 41.304L38.9318 44.888C38.2278 44.8453 37.5771 44.8133 36.9798 44.792C36.4038 44.7707 35.7744 44.76 35.0918 44.76C34.4304 44.7387 33.6304 44.728 32.6918 44.728C31.6038 44.728 30.7504 44.9413 30.1318 45.368C29.5344 45.7947 29.1078 46.5413 28.8518 47.608C28.5958 48.6533 28.4678 50.104 28.4678 51.96C28.4678 53.816 28.5958 55.2773 28.8518 56.344C29.1078 57.3893 29.5344 58.1253 30.1318 58.552C30.7504 58.9787 31.6038 59.192 32.6918 59.192C34.1638 59.192 35.4011 59.1707 36.4038 59.128C37.4064 59.0853 38.3984 59.0107 39.3798 58.904L39.7958 62.488C38.7718 62.808 37.7264 63.032 36.6598 63.16C35.5931 63.3093 34.2704 63.384 32.6918 63.384C30.4091 63.384 28.5744 63.0213 27.1878 62.296C25.8224 61.5493 24.8304 60.344 24.2118 58.68C23.6144 57.016 23.3158 54.776 23.3158 51.96C23.3158 49.144 23.6144 46.904 24.2118 45.24C24.8304 43.576 25.8224 42.3813 27.1878 41.656C28.5744 40.9093 30.4091 40.536 32.6918 40.536ZM50.1603 40.504C51.2483 40.504 52.4323 40.568 53.7123 40.696C54.9923 40.8027 56.2403 41.0373 57.4563 41.4L57.1363 44.632C56.1976 44.6107 55.0989 44.5893 53.8403 44.568C52.5816 44.5467 51.3443 44.536 50.1283 44.536C49.5309 44.536 49.0189 44.5573 48.5923 44.6C48.1869 44.6213 47.8563 44.7067 47.6003 44.856C47.3443 44.984 47.1629 45.1867 47.0563 45.464C46.9496 45.7413 46.8963 46.1253 46.8963 46.616C46.8963 47.3627 47.0669 47.9067 47.4083 48.248C47.7709 48.5893 48.3789 48.8987 49.2323 49.176L53.4883 50.552C55.2589 51.1493 56.4856 51.96 57.1683 52.984C57.8509 54.008 58.1923 55.352 58.1923 57.016C58.1923 58.2747 58.0429 59.32 57.7443 60.152C57.4456 60.984 56.9763 61.6347 56.3363 62.104C55.6963 62.5733 54.8536 62.904 53.8083 63.096C52.7629 63.3093 51.4829 63.416 49.9683 63.416C49.2429 63.416 48.2083 63.3627 46.8643 63.256C45.5203 63.1707 43.9843 62.936 42.2563 62.552L42.5763 59.096C43.8349 59.1173 44.9229 59.1493 45.8403 59.192C46.7789 59.2133 47.5789 59.2347 48.2403 59.256C48.9016 59.256 49.4776 59.256 49.9683 59.256C50.8216 59.256 51.4829 59.2027 51.9523 59.096C52.4429 58.9893 52.7843 58.776 52.9763 58.456C53.1683 58.136 53.2643 57.6773 53.2643 57.08C53.2643 56.568 53.1896 56.1627 53.0403 55.864C52.9123 55.544 52.6883 55.2987 52.3683 55.128C52.0696 54.936 51.6536 54.7653 51.1203 54.616L46.6403 53.08C44.9549 52.4613 43.7603 51.6507 43.0563 50.648C42.3523 49.6453 42.0003 48.3227 42.0003 46.68C42.0003 45.4 42.1496 44.3653 42.4483 43.576C42.7683 42.7653 43.2483 42.136 43.8883 41.688C44.5496 41.24 45.3923 40.9307 46.4163 40.76C47.4616 40.5893 48.7096 40.504 50.1603 40.504ZM68.9103 40.504C69.9983 40.504 71.1823 40.568 72.4623 40.696C73.7423 40.8027 74.9903 41.0373 76.2063 41.4L75.8863 44.632C74.9476 44.6107 73.8489 44.5893 72.5903 44.568C71.3316 44.5467 70.0943 44.536 68.8783 44.536C68.2809 44.536 67.7689 44.5573 67.3423 44.6C66.9369 44.6213 66.6063 44.7067 66.3503 44.856C66.0943 44.984 65.9129 45.1867 65.8063 45.464C65.6996 45.7413 65.6463 46.1253 65.6463 46.616C65.6463 47.3627 65.8169 47.9067 66.1583 48.248C66.5209 48.5893 67.1289 48.8987 67.9823 49.176L72.2383 50.552C74.0089 51.1493 75.2356 51.96 75.9183 52.984C76.6009 54.008 76.9423 55.352 76.9423 57.016C76.9423 58.2747 76.7929 59.32 76.4943 60.152C76.1956 60.984 75.7263 61.6347 75.0863 62.104C74.4463 62.5733 73.6036 62.904 72.5583 63.096C71.5129 63.3093 70.2329 63.416 68.7183 63.416C67.9929 63.416 66.9583 63.3627 65.6143 63.256C64.2703 63.1707 62.7343 62.936 61.0063 62.552L61.3263 59.096C62.5849 59.1173 63.6729 59.1493 64.5903 59.192C65.5289 59.2133 66.3289 59.2347 66.9903 59.256C67.6516 59.256 68.2276 59.256 68.7183 59.256C69.5716 59.256 70.2329 59.2027 70.7023 59.096C71.1929 58.9893 71.5343 58.776 71.7263 58.456C71.9183 58.136 72.0143 57.6773 72.0143 57.08C72.0143 56.568 71.9396 56.1627 71.7903 55.864C71.6623 55.544 71.4383 55.2987 71.1183 55.128C70.8196 54.936 70.4036 54.7653 69.8703 54.616L65.3903 53.08C63.7049 52.4613 62.5103 51.6507 61.8063 50.648C61.1023 49.6453 60.7503 48.3227 60.7503 46.68C60.7503 45.4 60.8996 44.3653 61.1983 43.576C61.5183 42.7653 61.9983 42.136 62.6383 41.688C63.2996 41.24 64.1423 40.9307 65.1663 40.76C66.2116 40.5893 67.4596 40.504 68.9103 40.504Z" fill="white"/>
        </g>
        <defs>
        <clipPath id="clip0_10_4">
        <rect width="100" height="100" fill="white"/>
        </clipPath>
        </defs>
    </g>
    <g id="html">
        <g clip-path="url(#clip0_10_2)">
        <rect width="100" height="100" fill="none"/>
        <path d="M13.2298 40.92V63H8.33375V40.92H13.2298ZM21.4218 49.4V53.08H12.9738V49.4H21.4218ZM25.9658 40.92V63H21.0698V40.92H25.9658ZM40.2828 40.92V63H35.3868V40.92H40.2828ZM46.9388 40.92V44.76H28.7628V40.92H46.9388ZM72.3008 40.92C73.4528 40.92 74.0501 41.5173 74.0928 42.712L74.9248 63H70.4128L69.6768 44.696H69.1008L65.5487 58.456C65.3568 59.48 64.7168 59.992 63.6287 59.992H60.5568C59.4688 59.992 58.8074 59.48 58.5728 58.456L55.0208 44.696H54.4768L53.8048 63H49.2608L50.0928 42.712C50.1354 41.5173 50.7434 40.92 51.9168 40.92H56.4928C57.5381 40.92 58.1781 41.4427 58.4128 42.488L61.2608 53.592C61.3888 54.104 61.4954 54.6267 61.5808 55.16C61.6661 55.672 61.7621 56.1947 61.8688 56.728H62.2848C62.3914 56.1947 62.4874 55.672 62.5728 55.16C62.6794 54.6267 62.7861 54.0933 62.8928 53.56L65.7088 42.488C65.9221 41.4427 66.5621 40.92 67.6288 40.92H72.3008ZM83.79 40.92V57.432C83.79 57.9653 83.9393 58.3707 84.238 58.648C84.5367 58.9253 84.9633 59.064 85.518 59.064H93.23L93.454 62.744C91.9393 62.9147 90.35 63.0107 88.686 63.032C87.0433 63.0747 85.4007 63.096 83.758 63.096C82.158 63.096 80.942 62.6693 80.11 61.816C79.2993 60.9413 78.894 59.832 78.894 58.488V40.92H83.79Z" fill="white"/>
        </g>
        <defs>
        <clipPath id="clip0_10_2">
        <rect width="100" height="100" fill="white"/>
        </clipPath>
        </defs>
    </g>
    <g id="vscode">
        <path d="M84.6125 14.6708L67.795 6.57416C66.8452 6.11624 65.7766 5.96512 64.7371 6.14176C63.6977 6.3184 62.7389 6.81405 61.9938 7.55999L6.94165 57.75C6.27371 58.3561 5.87388 59.2027 5.83012 60.1036C5.78636 61.0044 6.10226 61.8858 6.70832 62.5538C6.78124 62.6325 6.85415 62.7083 6.9329 62.7783L11.4275 66.8617C12.0148 67.3962 12.7708 67.7081 13.5642 67.7433C14.3575 67.7784 15.1381 67.5347 15.7704 67.0542L82.0808 16.7708C82.5817 16.3908 83.1787 16.1581 83.805 16.0988C84.4308 16.0397 85.0608 16.1564 85.6242 16.4359C86.1867 16.7154 86.6608 17.1465 86.9925 17.6808C87.3242 18.2151 87.5 18.8313 87.5 19.46V19.2646C87.5 18.3047 87.2292 17.3643 86.7183 16.5517C86.2075 15.739 85.4775 15.0871 84.6125 14.6708Z" fill="white" fill-opacity="0.67"/>
        <path d="M84.6125 78.6625L67.795 86.7625C66.845 87.2183 65.7766 87.3692 64.7374 87.1925C63.6982 87.0158 62.7396 86.5208 61.9938 85.7767L6.94165 35.5833C6.27371 34.9773 5.87388 34.1307 5.83012 33.2298C5.78636 32.3289 6.10226 31.4476 6.70832 30.7796C6.78124 30.7008 6.85415 30.625 6.9329 30.555L11.4275 26.4717C12.0154 25.9349 12.7731 25.6216 13.5684 25.5864C14.3638 25.5513 15.1462 25.7964 15.7792 26.2792L82.0808 76.5625C82.5817 76.9426 83.1787 77.1753 83.805 77.2345C84.4308 77.2937 85.0608 77.1769 85.6242 76.8974C86.1867 76.6179 86.6608 76.1868 86.9925 75.6525C87.3242 75.1183 87.5 74.5021 87.5 73.8733V74.0833C87.4967 75.0407 87.2242 75.9778 86.7142 76.7876C86.2033 77.5973 85.475 78.2471 84.6125 78.6625Z" fill="white"/>
        <path d="M67.795 86.7625C66.845 87.2183 65.7767 87.3692 64.7375 87.1925C63.6983 87.0158 62.7397 86.5208 61.9938 85.7767C62.4127 86.19 62.9442 86.47 63.5217 86.5825C64.0994 86.6958 64.6974 86.635 65.2408 86.4092C65.7843 86.1833 66.249 85.8025 66.5767 85.3133C66.9046 84.825 67.0808 84.25 67.0833 83.6617V9.67168C67.0838 9.08043 66.9088 8.50234 66.5805 8.01068C66.2522 7.51898 65.7853 7.13579 65.239 6.90966C64.6927 6.68353 64.0917 6.62462 63.5118 6.74039C62.932 6.85618 62.3997 7.14143 61.9821 7.56004C62.7274 6.81437 63.686 6.31869 64.7253 6.14156C65.7645 5.96443 66.8332 6.11459 67.7833 6.57129L84.5983 14.6563C85.4658 15.0704 86.1983 15.7215 86.7117 16.5343C87.2258 17.3472 87.4983 18.2886 87.5 19.25V74.0833C87.5 75.044 87.2292 75.9853 86.7175 76.7985C86.2067 77.6118 85.4758 78.264 84.61 78.68L67.795 86.7625Z" fill="white"/>
    </g>
    <g id="linkedin">
        <ellipse cx="19.3521" cy="18.868" rx="18.8683" ry="18.8683" fill="#FF6DCF"/>
        <path d="M10.0634 28.7051H14.0114V14.0974H10.0634V28.7051ZM12.0374 7.64899C10.7214 7.64899 9.66858 8.70179 9.66858 10.0178C9.66858 11.3338 10.7214 12.3866 12.0374 12.3866C13.3534 12.3866 14.4062 11.3338 14.4062 10.0178C14.4062 8.70179 13.3534 7.64899 12.0374 7.64899ZM20.723 16.3346V14.0974H16.775V28.7051H20.723V21.2039C20.723 16.9926 26.1187 16.7294 26.1187 21.2039V28.7051H30.0667V19.7563C30.0667 12.6498 22.5655 12.913 20.723 16.3346Z" fill="#0B0114"/>
        <defs>
        <linearGradient id="paint0_linear_1_3196" x1="0.483887" y1="18.868" x2="38.2204" y2="18.868" gradientUnits="userSpaceOnUse">
        <stop stop-color="#13b0f5"/>
        <stop offset="1" stop-color="#00D9F5"/>
        </linearGradient>
        </defs>
    </g>
    <g id="gmail">
        <circle cx="19.2479" cy="18.8683" r="18.8683" fill="#FF6DCF"/>
        <g clip-path="url(#clip0_1_3190)">
        <path d="M31.0406 11.4974V26.2383C31.0406 27.0748 30.4031 27.7123 29.5666 27.7123H28.0925V14.3343L19.248 20.6876L10.4035 14.3343V27.7123H8.9294C8.09286 27.7123 7.45532 27.0748 7.45532 26.2383V11.4974C7.45532 11.0788 7.61305 10.7103 7.87765 10.4494C8.01545 10.3115 8.17958 10.2027 8.36026 10.1295C8.54094 10.0563 8.73449 10.0202 8.9294 10.0233H9.42101L19.248 17.1483L29.0749 10.0233H29.5666C29.9852 10.0233 30.3537 10.1811 30.6183 10.4494C30.8829 10.7103 31.0406 11.0788 31.0406 11.4974Z" fill="#0B0114"/>
        </g>
        <defs>
        <linearGradient id="paint0_linear_1_3190" x1="0.379639" y1="18.8683" x2="38.1161" y2="18.8683" gradientUnits="userSpaceOnUse">
        <stop stop-color="#00F5A0"/>
        <stop offset="1" stop-color="#00D9F5"/>
        </linearGradient>
        <clipPath id="clip0_1_3190">
        <rect width="23.5853" height="23.5853" fill="white" transform="translate(7.45508 7.07556)"/>
        </clipPath>
        </defs>
    </g>
    <g id="git-link">
        <circle cx="19.2141" cy="18.8683" r="18.8683" fill="#0B0114"/>
        <g clip-path="url(#clip0_1_3204)">
        <path fill-rule="evenodd" clip-rule="evenodd" d="M19.2141 0C8.78937 0 0.345825 8.44354 0.345825 18.8682C0.345825 27.2175 5.74686 34.2695 13.247 36.7695C14.1904 36.9346 14.5442 36.3686 14.5442 35.8733C14.5442 35.4251 14.5206 33.9393 14.5206 32.3591C9.77995 33.2317 8.55351 31.2034 8.17615 30.142C7.96388 29.5996 7.04405 27.925 6.24215 27.4769C5.58177 27.1231 4.63835 26.2505 6.21857 26.2269C7.70444 26.2033 8.76578 27.5948 9.11956 28.1609C10.8177 31.0147 13.53 30.2128 14.6149 29.7175C14.78 28.4911 15.2753 27.6656 15.8178 27.1939C11.6196 26.7222 7.23274 25.0948 7.23274 17.8777C7.23274 15.8257 7.96388 14.1276 9.16673 12.8068C8.97805 12.3351 8.31766 10.4011 9.35542 7.80674C9.35542 7.80674 10.9356 7.31145 14.5442 9.74073C16.0536 9.3162 17.6574 9.10393 19.2612 9.10393C20.865 9.10393 22.4688 9.3162 23.9783 9.74073C27.5869 7.28786 29.1671 7.80674 29.1671 7.80674C30.2048 10.4011 29.5444 12.3351 29.3558 12.8068C30.5586 14.1276 31.2898 15.8022 31.2898 17.8777C31.2898 25.1184 26.8793 26.7222 22.6811 27.1939C23.3651 27.7835 23.9547 28.9156 23.9547 30.6845C23.9547 33.2081 23.9311 35.2365 23.9311 35.8733C23.9311 36.3686 24.2849 36.9582 25.2283 36.7695C28.974 35.5049 32.2287 33.0976 34.5346 29.8863C36.8404 26.6751 38.0812 22.8216 38.0823 18.8682C38.0823 8.44354 29.6388 0 19.2141 0Z" fill="#FF6DCF"/>
        </g>
        <defs>
        <linearGradient id="paint0_linear_1_3204" x1="0.345825" y1="18.4028" x2="38.0823" y2="18.4028" gradientUnits="userSpaceOnUse">
        <stop stop-color="#00F5A0"/>
        <stop offset="1" stop-color="#00D9F5"/>
        </linearGradient>
        <clipPath id="clip0_1_3204">
        <rect width="37.7365" height="37.7365" fill="white" transform="translate(0.345825)"/>
        </clipPath>
        </defs>
    </g>
</svg>